<svg width="46" height="40" viewBox="0 0 46 40" fill="none" xmlns="http://www.w3.org/2000/svg">
<g clip-path="url(#clip0_2_11)">
<path fill-rule="evenodd" clip-rule="evenodd" d="M5.53802 27.3828C5.53802 27.3828 6.71102 29.1893 9.19119 29.7828C13.4282 30.7973 19.5834 29.3756 22.448 34.6667L22.4518 34.659C22.6512 35.0259 22.8597 35.4556 22.9433 35.7867C22.9701 35.435 22.8835 34.8743 22.701 34.2308C25.6623 29.4556 31.5886 30.7687 35.7052 29.7832C38.1854 29.1893 39.3584 27.3828 39.3584 27.3828C39.3565 27.5794 39.3396 27.7707 39.34 27.9573C39.3622 35.3836 33.3178 34.8392 30.7955 35.1901C26.8521 35.7394 23.7356 37.7135 22.4534 39.9787L22.448 39.9886L22.443 39.9787C21.1604 37.7135 18.1244 35.6548 14.1009 35.1901C11.3616 34.8739 5.53803 35.1249 5.54224 27.6152C5.54224 27.5387 5.53841 27.4609 5.53802 27.3828Z" fill="#1E4F9B"/>
<path d="M24.6581 22.9573L24.6137 22.9554L24.6309 23.1638L24.6328 23.1512C24.642 23.0949 24.6508 23.0267 24.6581 22.9573ZM24.1445 23.0061L24.1456 22.9768L24.0778 22.9851C24.0622 23.4746 23.9799 23.9596 23.8332 24.427C23.5806 25.2236 23.073 26.1364 22.0553 26.7394C21.643 26.9867 21.2024 27.1838 20.7428 27.3265C20.346 27.4495 19.9861 27.517 19.6414 27.581C19.2044 27.6629 18.7916 27.7398 18.3745 27.9105C18.0452 28.0466 17.7369 28.2282 17.4587 28.4499L17.466 28.4495L17.4534 28.5356C17.7445 28.2981 18.0695 28.1049 18.4178 27.9623C18.8334 27.7935 19.2328 27.7192 19.6556 27.64L19.6733 27.637C20.3671 27.507 21.1238 27.3627 22.0929 26.7882C22.5874 26.4949 22.963 26.1299 23.2475 25.7417C23.5121 25.375 23.7193 24.9705 23.8619 24.5421L23.8761 24.501L23.8819 24.4956C23.9355 24.3356 23.9773 24.181 24.0099 24.0366C24.0406 23.9044 24.0636 23.7798 24.0808 23.669L24.1027 23.5006C24.1295 23.2987 24.1399 23.1291 24.1445 23.0061ZM24.6988 21.6701L24.6761 21.7463V22.2949C24.6761 22.2949 24.6804 22.339 24.6804 22.4149L24.7359 22.4145C24.7812 22.309 24.8486 22.0994 24.8356 21.8099C24.8221 21.5886 24.7796 21.37 24.7091 21.1596C24.7168 21.203 24.7221 21.2469 24.726 21.2895C24.7382 21.4259 24.7313 21.557 24.6988 21.6701ZM24.2085 21.0084C24.1663 21.0061 24.1238 21.0042 24.0843 21.003C24.1537 21.1745 24.2368 21.448 24.2468 21.7688C24.2544 21.9903 24.2255 22.2117 24.1613 22.424C24.2054 22.419 24.2514 22.4145 24.2978 22.411C24.3089 22.3779 24.3173 22.3425 24.3265 22.304C24.3285 22.3021 24.3783 22.0945 24.3821 22.0785L24.3641 21.6293C24.3613 21.5094 24.3441 21.3902 24.3127 21.2743C24.2859 21.1828 24.251 21.0938 24.2085 21.0084ZM19.9082 25.7086C19.4724 25.7749 19.0864 25.9379 18.8134 26.0811L18.795 26.1611C19.0653 26.0137 19.4659 25.8354 19.9197 25.7665L20.0443 25.7505L20.0447 25.7497L20.2237 25.7284C20.5296 25.6914 20.9551 25.6404 21.4251 25.5463C21.8767 25.4564 22.3681 25.3269 22.8292 25.133C22.8614 25.091 22.8925 25.048 22.9224 25.0042C22.5256 25.1882 22.0982 25.3211 21.6896 25.419C21.1092 25.5577 20.5733 25.6251 20.2141 25.6686L20.0558 25.6876L19.9082 25.7086ZM24.9682 20.8724C24.9694 20.8842 24.9755 20.883 24.9874 20.9162C25.0426 21.0739 25.1588 21.405 25.1764 21.7954C25.1956 22.2095 25.0717 22.5078 25.0169 22.6183V22.6194C25.0694 22.6187 25.1323 22.6183 25.1584 22.6152L25.171 22.6015C25.4535 22.0827 25.3282 21.3989 25.1534 20.9825C25.084 20.9387 25.0188 20.9036 24.9682 20.8724ZM18.8568 20.9349C18.8568 20.9349 19.145 21.2282 19.1404 21.6884C19.1362 22.1493 18.9641 22.4491 18.8568 22.5276C18.9852 22.117 19.0093 21.3406 18.8568 20.9349ZM18.8322 20.6453C18.9242 20.6453 19.4195 21.1265 19.4195 21.7196C19.4195 22.3124 18.92 22.7928 18.8322 22.7928C18.7444 22.7928 18.245 22.3124 18.245 21.7192C18.245 21.1265 18.7402 20.6453 18.8322 20.6453ZM18.1967 26.0602H18.1974C18.2787 26.0008 18.9779 25.5059 19.8573 25.3718C19.9634 25.3573 20.0685 25.3436 20.1747 25.3307C20.5289 25.288 21.0571 25.2213 21.611 25.0888C22.1622 24.957 22.7464 24.7592 23.2268 24.4526L23.5269 24.2602C23.742 23.5478 23.7408 22.952 23.7377 22.8278C23.737 22.7737 23.7239 22.6465 23.7328 22.6004L23.7734 22.4937C24.0226 21.9131 23.9026 21.3459 23.6615 20.7882C23.7316 20.7547 23.7841 20.7162 23.86 20.691C23.9252 20.4331 24.1755 20.2434 24.4197 20.1592C24.1975 20.0895 23.9881 19.9844 23.7998 19.848L23.2517 19.6126C22.8913 19.4583 22.5973 19.0686 22.4517 18.7147C22.1699 18.4682 21.9192 18.2903 21.7724 17.9181L21.7555 17.8754L21.5447 17.9269C21.6309 18.7741 22.0584 19.6411 22.0595 19.6438C22.214 19.96 22.2243 20.0107 22.6199 20.144C23.6484 20.4907 24.0172 21.648 23.5618 22.5318L22.569 22.5752L22.4233 22.8941C22.4019 22.9213 22.3786 22.9471 22.3535 22.971C22.2155 23.0255 21.9434 23.0998 21.8452 23.125C21.7287 23.2457 21.3086 23.3322 21.0203 23.139C20.9321 23.0804 20.8716 23.0015 20.8528 22.9021L20.8244 22.9044L20.8298 22.6735C20.2833 22.7104 19.7372 22.7517 19.1914 22.7973C19.3095 22.7402 19.712 22.277 19.712 21.7143C19.712 21.1806 19.3532 20.7368 19.2133 20.6434C19.6012 20.6952 19.9711 20.7413 20.3272 20.7821C20.3245 20.5051 20.5856 20.2331 20.7504 20.1947C20.7581 20.1928 20.3843 20.1383 20.0723 19.8693C19.5563 19.7524 19.1343 19.3562 19.104 19.3394C19.0005 19.4853 18.9534 19.7265 18.6923 20.0895C18.4217 20.517 18.1062 21.0053 17.8317 21.2903C17.7847 21.3366 17.7361 21.3813 17.6861 21.4244C17.6623 21.4427 17.6431 21.4587 17.6274 21.4728C17.2901 21.7448 16.9259 21.8914 16.5445 21.8301L16.0807 21.755L16.3107 21.5086C16.0393 21.7676 15.7587 22.013 15.4769 22.2267C14.6343 22.8659 13.7692 23.2312 13.0638 22.8971L12.6514 22.7013L13.0385 22.459C13.2367 22.3349 13.4207 22.1821 13.6009 22.0636C12.8334 22.4968 12.181 22.7036 11.7436 22.7973C10.8857 22.981 10.5269 22.9192 10.006 22.2853L10.3425 22.1356C11.0517 21.8187 11.7375 21.4994 12.4217 21.1474C11.2131 21.6297 9.34855 22.1486 8.94874 20.8869L8.86019 20.6168L9.14002 20.5634C9.14654 20.5627 11.3726 20.1368 13.3739 19.2472C12.687 19.5341 11.2288 20.0819 10.5323 19.4865L10.5319 19.4872C10.4805 19.444 10.4347 19.3946 10.3954 19.3402L10.198 19.0663L10.5181 18.9573C11.4876 18.6267 12.5122 18.2476 13.8247 17.6278C14.2723 17.4161 14.7157 17.1956 15.1545 16.9665L15.7809 16.213C16.3136 15.5748 16.8774 14.9629 17.4702 14.3794C17.2627 14.5116 17.0354 14.6101 16.7967 14.6712C16.5169 14.741 16.2359 14.7486 15.9814 14.6834C15.71 14.6175 15.4716 14.4569 15.3094 14.2309L15.1361 13.9897C14.8953 14.0936 14.6405 14.1618 14.3798 14.192C13.9831 14.2362 13.6062 14.1794 13.3195 14.0248C13.0876 13.8998 12.9132 13.7128 12.8262 13.4655L12.7453 13.2343C12.5617 13.3246 12.375 13.3992 12.1887 13.4583C11.7919 13.584 11.3944 13.6389 11.0322 13.6244C10.6557 13.6091 10.313 13.5189 10.0412 13.3539C9.77099 13.1901 9.57089 12.955 9.47314 12.6488L9.39685 12.4095C8.93532 12.501 8.48299 12.5166 8.0801 12.4659C7.62547 12.4088 7.2291 12.2651 6.94582 12.0491C6.71467 11.8728 6.55559 11.6484 6.49425 11.381L6.40149 10.9752C6.10042 10.9357 5.80661 10.8535 5.52902 10.731C5.03452 10.5154 4.53695 10.1589 4.25252 9.64495C4.14593 9.4524 4.07369 9.24295 4.039 9.02591L4.03517 9.00152V8.63581C3.70435 8.47238 3.39232 8.25867 3.13127 7.98514C3.09064 7.94286 3.05077 7.90324 3.00937 7.86133C2.66437 7.51619 2.19594 7.04686 2.1323 6.25676V6.25295C2.13041 6.23421 2.13041 6.21532 2.1323 6.19657L2.1576 5.96C1.8434 5.76884 1.55222 5.54261 1.28974 5.28571C0.582103 4.58933 -0.0538468 3.50857 0.00326985 1.8819L0.0285699 1.16038C0.176153 1.36076 0.327187 1.56076 0.471703 1.76229C1.0628 2.54667 2.18635 3.3981 3.5008 4.17524C3.1443 3.86857 2.69695 3.39276 2.36422 2.77714C2.04069 2.17867 1.81912 1.44495 1.88045 0.600381L1.92415 0L2.36882 0.508571L2.37227 0.527619C2.4106 0.585524 2.452 0.64381 2.49647 0.702857L2.49609 0.703619C2.54669 0.770667 2.60227 0.84 2.66245 0.910095L2.71459 0.96419C2.79892 1.05105 2.88134 1.136 2.95225 1.21943C5.77205 3.98324 13.1347 5.0499 16.7657 5.57562L16.998 5.60914C17.9172 5.74133 18.0391 5.75886 18.8621 6.4621L19.0856 6.65257C20.916 8.21714 21.1292 8.39924 22.9358 9.24305L24.3143 8.38971C24.3783 8.3501 24.4458 8.30743 24.5117 8.26362C24.5753 8.22171 24.6424 8.17448 24.7118 8.12267C25.097 7.83695 25.4984 7.49791 25.733 7.29981C25.7928 7.24914 25.8411 7.20838 25.8978 7.1619C26.1968 6.91733 26.4498 6.69829 26.6526 6.52229C27.0333 6.19238 27.2391 6.01371 27.5278 5.88419C27.8578 5.73676 28.2427 5.68305 29.0806 5.5661L29.6453 5.4861C31.6244 5.2019 33.2394 4.89257 34.5665 4.59048C38.6414 3.62705 41.685 2.288 43.2256 0.552381L43.2314 0.511619L43.6784 0L43.7221 0.600762C43.7838 1.44533 43.5622 2.17905 43.2387 2.7779C42.9477 3.31581 42.569 3.74743 42.2401 4.05219C43.5323 3.35276 44.6551 2.53333 45.2358 1.76267C45.3359 1.58629 45.5509 1.33486 45.679 1.16076L45.7043 1.88229C45.761 3.50895 45.1254 4.58933 44.4182 5.28533C44.2006 5.49852 43.963 5.69051 43.7086 5.85867C43.9528 7.06248 42.5441 8.28724 41.322 8.65333L41.0498 9.09371C40.8957 9.63543 40.4518 10.0499 39.8554 10.2975C39.4548 10.464 39.0488 10.5124 38.8457 10.4594C38.7583 10.4366 38.6916 10.3912 38.6145 10.3467C38.4591 10.3628 38.3031 10.3732 38.1469 10.3779L38.0058 10.8522C37.9318 11.1006 37.7689 11.296 37.5427 11.4423C37.2127 11.6552 36.7408 11.7604 36.2175 11.7699C36.0443 11.7733 35.8649 11.7661 35.6824 11.749L35.5241 12.1909C35.452 12.392 35.3083 12.5577 35.112 12.6838V12.683C34.8456 12.8545 34.4764 12.9531 34.064 12.9661C33.6279 12.976 33.1938 12.9055 32.7836 12.7581C32.6756 12.7195 32.5695 12.6761 32.4655 12.6278L32.3543 13.008C32.0783 13.9585 30.3591 13.853 29.786 13.2042L29.4379 13.5516C29.1941 13.7943 28.8545 13.9086 28.5026 13.9173C28.1314 13.9253 27.7662 13.8242 27.4526 13.6267L27.3231 13.5429C26.9528 14.149 25.8748 15.3775 25.0698 15.9939L25.0694 16.632C25.0683 17.1493 25.3405 19.0808 25.5969 19.5817C25.7778 19.9352 25.682 19.9615 26.2221 20.144C26.6453 20.2865 26.9727 20.4766 27.169 20.84C27.7631 20.784 28.4918 20.7154 29.1642 20.6343C29.4253 20.899 29.6154 21.2248 29.6261 21.725C29.6369 22.2251 29.4092 22.7063 29.2209 22.8091C27.8022 22.6971 27.0877 22.616 26.1171 22.573C26.0883 22.653 26.0366 22.7558 25.9484 22.8808L25.9477 22.8811C25.9254 22.9086 25.9017 22.9341 25.8767 22.9566C25.7656 23.059 25.6303 23.1139 25.4919 23.1002L25.4493 23.0956L25.429 23.0861C25.3573 23.1376 25.274 23.171 25.1864 23.1832C25.1155 23.1912 25.0439 23.1922 24.9728 23.1863L24.9698 23.2046C24.9114 23.5869 24.765 23.9506 24.542 24.2674L24.0904 24.9097C23.9454 25.2758 23.7548 25.6224 23.5231 25.9413C23.1869 26.4025 22.7592 26.7904 22.2665 27.0811C21.2384 27.6907 20.4461 27.8389 19.7185 27.9749L19.7005 27.9779C19.303 28.0522 18.9265 28.1238 18.5463 28.2781C18.1641 28.4331 17.7712 28.6747 17.3357 29.0933L16.9769 29.4381L17.0635 28.8408L16.4456 28.9147L16.8124 28.5623C17.3273 28.0678 17.7922 27.7813 18.245 27.5958C18.6958 27.4118 19.1247 27.3314 19.5786 27.2469C19.9144 27.184 20.2647 27.1185 20.6427 27.0011C21.018 26.8853 21.4247 26.717 21.8809 26.4465C22.3078 26.1942 22.6754 25.8538 22.9588 25.4484C22.4739 25.6522 21.9614 25.7874 21.4918 25.8808C21.0126 25.9764 20.5768 26.029 20.2636 26.0667L20.085 26.088L19.9703 26.1032C19.2309 26.216 18.6509 26.6495 18.6402 26.6571L18.6333 26.6632L18.2768 26.8998L18.3948 26.381L17.7873 26.3314L18.1963 26.0598L18.1967 26.0602Z" fill="#1E4F9B"/>
<path fill-rule="evenodd" clip-rule="evenodd" d="M37.7652 10.8015C37.3903 12.0587 33.8491 11.6175 32.9245 10.1958C34.3037 10.9989 37.2033 11 37.7652 10.8015ZM35.2874 12.1272C34.9535 13.0591 32.3825 13.0301 31.2555 11.2933C32.5067 12.3173 34.786 12.2941 35.2874 12.1272ZM32.1137 12.9589C31.9163 13.6362 30.0096 13.6613 29.4868 12.4392C30.2308 12.992 31.758 13.0499 32.1137 12.9589ZM29.2602 13.3951C28.8539 13.8004 28.0838 13.757 27.5896 13.437C27.6985 13.2911 27.7621 13.1989 27.8538 13.061C28.3168 13.3227 28.8692 13.4088 29.2602 13.3951ZM34.7975 5.65373C33.2001 6.20496 31.4318 6.62058 30.0779 7.05563C29.1138 7.36496 28.8665 7.59544 27.7989 8.52573C27.2144 8.32154 26.4435 8.28154 26.1341 8.30554C25.6044 8.34744 25.0336 8.45906 24.4475 8.62211C24.5759 8.54249 24.7231 8.44801 24.8626 8.34401C25.3632 7.97182 25.8976 7.50592 26.0575 7.37487C27.8492 5.91049 27.1415 6.11887 29.6811 5.75392C33.6532 5.18325 36.1694 4.51201 37.8323 3.99582C36.9836 4.63811 35.8719 5.2263 34.7975 5.65373ZM5.92862 10.2351C6.24717 10.4865 6.64277 10.6427 6.90382 10.7113C6.50515 10.9299 4.5168 10.4362 4.2868 9.00649H4.28795C5.75229 9.51087 7.24652 10.3074 10.5566 9.82096C9.07924 10.4735 7.25764 10.6286 5.929 10.2351H5.92862ZM6.73937 11.3455C7.02802 12.605 10.2492 12.7379 11.8354 10.6735C10.3151 11.7097 7.3274 11.5802 6.73937 11.3455ZM9.7125 12.5928C10.1288 13.8998 12.9383 13.6213 14.1185 11.6899C12.75 12.8061 10.2595 12.776 9.7125 12.5928ZM13.0632 13.4031C13.4197 14.4202 15.8516 14.1052 16.3863 12.2815C15.4541 13.3173 13.5328 13.4968 13.0632 13.4031ZM15.5139 14.1055C16.1406 14.9779 17.8994 14.3006 18.2355 12.9985C17.3224 13.8975 15.8995 14.1513 15.5139 14.1055ZM16.5792 10.7356C16.2905 11.0069 16.7635 11.4107 17.705 11.2861C17.705 11.2861 16.9579 11.1192 16.5792 10.7356ZM14.4977 9.33868C14.1389 9.67582 14.7277 10.1783 15.8972 10.0233C15.8972 10.0233 14.9684 9.81601 14.4977 9.33868ZM12.4008 7.63011C11.9201 8.02896 12.6251 8.71163 14.1193 8.60763C14.1193 8.60763 12.9597 8.27163 12.4012 7.63011H12.4008ZM39.4929 9.93944C39.2966 10.0641 39.0821 10.1579 38.857 10.2175C39.1215 10.3707 40.5532 10.024 40.8158 9.01944L40.8131 9.02058L40.82 9.00992C39.315 9.37868 37.5782 9.86096 34.0737 9.20039C35.6676 10.0865 37.9784 10.4057 39.4929 9.93944ZM41.7998 7.53449C41.0197 8.12344 39.9797 8.4522 39.3771 8.57373C40.1549 8.69487 41.5215 8.59163 42.4055 7.82096C42.7493 7.52115 43.3416 7.12344 43.4773 6.33182C43.4782 6.32899 43.4787 6.32604 43.4788 6.32306L43.3692 6.37563C42.7819 6.62782 39.8916 7.67315 36.0161 7.6663C38.7017 8.37525 40.5927 8.04535 41.7998 7.53449ZM45.4419 1.92649L45.4537 1.91011C45.5618 4.99201 43.0583 5.99049 42.6251 6.15773C43.1932 5.66896 43.7008 5.15201 44.168 4.16611C43.0706 5.2602 41.0535 6.29258 37.3731 6.03696C39.9656 5.74363 44.086 3.72573 45.4376 1.93144L45.4396 1.92916L45.4419 1.92649ZM42.4403 2.39963C40.8012 3.96535 37.5414 5.49296 35.1172 5.95011C36.7218 5.39277 38.5434 4.41563 39.5098 3.39582C41.1401 2.67392 42.384 2.03773 43.4589 0.681917C43.4643 0.668425 43.4681 0.654367 43.4704 0.640013L43.4719 0.638489C43.6279 2.78249 41.832 4.16992 41.4682 4.34592L41.4353 4.35849C41.4353 4.35849 41.9558 3.64344 42.4403 2.39963ZM26.4224 9.6762C26.4224 9.6762 27.4781 9.72534 27.6222 10.2766C27.6222 10.2766 27.5659 10.2777 27.4773 10.2636C27.4773 10.2636 27.4168 10.5486 27.1247 10.6076C26.6325 10.6522 26.4347 10.1741 26.56 9.84915C26.56 9.84915 26.4761 9.75658 26.4224 9.6762ZM26.9648 10.1109C26.9648 10.1109 26.9096 10.3711 27.094 10.4114C27.2546 10.4457 27.3405 10.3097 27.3144 10.2156C27.3144 10.2156 27.2519 10.333 27.122 10.3078C26.979 10.2808 26.9648 10.1109 26.9648 10.1109ZM28.4617 10.7432C28.4416 10.7507 28.4199 10.7526 28.3988 10.7488C28.3777 10.7449 28.3581 10.7354 28.342 10.7213C28.3259 10.7073 28.314 10.6891 28.3074 10.6688C28.3009 10.6485 28.3 10.6269 28.3049 10.6061C28.3716 10.5356 28.5234 10.6412 28.4617 10.7432ZM16.5838 21.6027C17.549 20.568 18.0765 19.8133 18.5832 18.9581C18.6817 19.0625 18.7845 19.1634 18.888 19.2598C18.3329 20.3935 17.4735 21.7463 16.5838 21.6027ZM13.1721 22.6903C15.5557 21.197 16.5309 20.1577 18.1853 18.4815C18.247 18.5676 18.3137 18.653 18.3839 18.7356C17.9764 19.2994 14.8706 23.496 13.1721 22.6903ZM10.4447 22.3832C12.8808 21.2956 15.037 20.1764 17.8361 17.8244C17.8813 17.9608 17.9442 18.0964 18.0213 18.2293C16.8433 19.2293 14.6127 21.1452 13.7548 21.6754C12.6703 22.3459 11.0404 22.9646 10.4447 22.3832ZM17.7993 16.7874C17.1285 17.2945 15.3843 18.6469 13.4761 19.4953C11.4467 20.3973 9.18734 20.8293 9.18734 20.8293C9.18734 20.8293 9.46257 21.7467 11.2313 21.2423C12.8125 20.7909 14.7541 19.7474 17.7502 17.3661C17.7399 17.1719 17.7564 16.9772 17.7993 16.7874ZM19.0106 15.0751C14.73 17.6857 12.5522 18.5478 10.5988 19.2137C11.5004 20.4652 17.1591 17.2682 19.0106 15.0751ZM23.0399 17.3836C22.8861 17.7048 22.8352 18.6975 23.3507 19.4019C22.7221 19.1322 22.1314 17.8 23.0399 17.3836ZM23.5351 18.2838C23.6003 19.0956 24.1354 19.6313 24.505 19.9429C23.8594 19.76 22.9525 18.9554 23.5351 18.2838ZM24.8193 16.3863C24.8193 16.3863 23.6072 16.8735 23.654 18.0278C23.8192 17.8408 24.1446 17.5585 24.4643 17.5493C24.1009 17.792 23.9047 18.2194 23.9901 18.7086C23.9901 18.7086 24.4195 18.1779 24.569 18.2362C24.569 18.2362 24.1354 18.7772 24.3785 19.3973C24.3785 19.3973 24.4705 19.1657 24.7388 19.1326C24.6315 19.3612 24.6353 19.7097 24.7039 19.912C24.7039 19.912 25.0915 19.8705 25.3732 19.7154C24.7683 18.5352 24.8204 17.5806 24.8197 16.3859L24.8193 16.3863ZM23.5608 14.285C23.5608 14.285 24.592 14.4743 25.5549 13.8907C24.9945 13.904 24.6924 13.8252 24.5065 13.5752C26.4343 13.2153 26.9893 12.7219 27.7526 11.8381C27.756 11.8338 27.7599 11.8299 27.7641 11.8263L27.7656 11.8252L27.7667 11.8244L27.7894 11.8038L27.7901 11.8031C28.0968 11.544 28.4414 11.789 28.4426 11.9756C28.3145 12.0815 28.1294 12.0918 27.9665 12.0137C27.2987 13.6423 24.2466 17.0339 21.6438 17.6652L21.6802 17.3749C22.1587 17.1499 22.6177 16.886 23.0525 16.5859C22.844 16.4686 22.7236 16.3493 22.6243 16.1794C22.8428 16.192 23.3626 16.136 24.0496 15.7711C23.6689 15.7052 23.2231 15.493 23.087 15.2404C23.6858 15.2937 24.2516 15.1322 24.7867 14.949C24.2508 14.9368 23.7943 14.5566 23.5608 14.285ZM19.0586 15.8743C18.7596 16.28 18.5253 17.0114 18.8247 18.3825C18.2808 17.9036 17.7897 16.2061 19.0586 15.8743ZM19.4622 17.3036C19.3081 17.6415 19.2575 18.6857 19.7727 19.4267C19.144 19.1429 18.5537 17.7413 19.4622 17.3036ZM19.9924 18.3673C20.0384 19.1189 20.5804 19.6949 20.9607 20.0156C20.2963 19.8274 19.3928 19.0587 19.9924 18.3673ZM22.2958 17.736C22.3165 17.9608 22.3426 18.0842 22.4024 18.3577C22.2494 18.2229 22.113 18.1166 22.0064 17.8465C22.1022 17.8126 22.1988 17.7756 22.2958 17.736ZM21.4594 15.7882L21.5291 15.1612C21.5291 15.1612 20.6881 15.6065 20.6774 16.2248C20.6774 16.2248 21.0139 15.8613 21.4594 15.7882ZM21.3505 16.8488L21.4475 16.1349C21.4475 16.1349 20.4194 16.3189 20.3535 17.5817C20.5835 17.1444 21.0155 16.92 21.3509 16.8488H21.3505ZM21.8335 19.7726C21.8335 19.7726 21.1397 18.3646 21.3049 17.3101C20.7721 17.5196 20.3408 17.9966 20.4504 18.6488C20.4504 18.6488 20.8798 18.1745 21.0293 18.2347C21.0293 18.2347 20.5961 18.7973 20.8388 19.4419C20.8388 19.4419 20.9308 19.2008 21.1991 19.1665C21.0918 19.4042 21.0956 19.7661 21.1646 19.9768C21.1646 19.9768 21.5518 19.9337 21.8335 19.7726ZM25.4196 22.8941C25.4299 22.8796 25.4464 22.8412 25.4142 22.757L25.4196 22.8941ZM25.857 21.845C25.8091 22.0545 25.635 22.1859 25.635 22.1859C25.8025 22.1212 25.9087 21.9966 25.9662 21.872C25.9871 21.8673 26.0059 21.8561 26.0199 21.84C26.3446 21.4629 25.8206 20.8754 25.5641 20.7132C25.8727 20.8373 26.0306 21.0172 26.21 21.2644C26.2721 21.3768 26.3289 21.5158 26.3143 21.6358C26.2963 21.781 26.3538 21.8598 26.4205 21.8846C26.3879 22.0396 26.2537 22.1707 26.2537 22.1707C26.4197 22.1002 26.4987 21.9874 26.5374 21.8705C26.542 21.867 26.5464 21.8632 26.5504 21.8591C26.6535 21.7532 26.6141 21.5962 26.6083 21.4941C26.5884 21.1215 26.2568 20.8015 26.0256 20.6705C26.427 20.8202 26.7544 21.0819 26.7605 21.5532C26.7624 21.7006 26.8218 21.773 26.8862 21.792C26.8552 21.9711 26.7329 22.1082 26.7329 22.1082C26.8747 22.029 26.956 21.8987 26.9989 21.7726C27.0059 21.7673 27.0124 21.7613 27.0181 21.7547C27.2059 21.536 26.9794 20.984 26.8027 20.7779C26.4136 20.3238 25.7811 20.4633 25.4932 19.981C25.2134 20.1166 24.8423 20.1848 24.8365 20.1707C24.845 20.1916 24.6368 20.3791 24.6368 20.3791C24.3447 20.4396 24.2278 20.5711 24.2213 20.6133L24.9719 20.7036C25.2509 20.8773 25.4621 20.9733 25.6473 21.1947L25.6484 21.1966C25.6783 21.2339 25.8133 21.3775 25.7841 21.6172C25.77 21.7314 25.8071 21.8069 25.857 21.845ZM22.2667 21.8533C22.2283 22.0789 22.039 22.2217 22.039 22.2217C22.2268 22.1486 22.3372 22.0012 22.389 21.8629C22.3999 21.8572 22.4097 21.8494 22.4177 21.84C22.742 21.4629 22.2184 20.8754 21.9619 20.7132C22.2701 20.8373 22.4284 21.0172 22.6078 21.2644C22.6699 21.3768 22.7267 21.5158 22.7117 21.6358C22.6929 21.7893 22.7585 21.8686 22.8294 21.888C22.8106 22.0572 22.6577 22.2061 22.6577 22.2061C22.8505 22.1242 22.926 21.9852 22.9567 21.8495C23.0487 21.7444 23.0115 21.5935 23.0061 21.4941C22.9858 21.1215 22.6542 20.8015 22.4235 20.6705C22.8248 20.8202 23.1518 21.0819 23.1579 21.5532C23.1598 21.7093 23.2265 21.781 23.2952 21.7947C23.2741 21.9897 23.1372 22.144 23.1372 22.144C23.3009 22.0518 23.3841 21.8918 23.4209 21.7486C23.5995 21.5257 23.3753 20.9821 23.2005 20.7779C22.811 20.3238 22.1789 20.4633 21.8906 19.981C21.6108 20.1166 21.2401 20.1848 21.234 20.1707C21.242 20.1916 21.1117 20.365 21.1117 20.365C20.82 20.4259 20.6352 20.5448 20.6191 20.6133L21.3697 20.7036C21.6487 20.8773 21.8596 20.9733 22.0451 21.1947L22.0463 21.1966C22.0762 21.2339 22.2111 21.3775 22.182 21.6172C22.1666 21.7402 22.2107 21.8183 22.2663 21.8533H22.2667ZM21.0994 22.8724C21.1305 22.8773 21.5357 22.8572 21.5855 22.8572C21.6303 22.8564 21.6725 22.8503 21.712 22.8396C21.9014 22.7901 22.0355 22.6492 22.1674 22.5478C22.0662 22.7505 22.0033 22.8762 21.7806 22.9467L21.7764 22.9482C21.6714 23.1036 21.1232 23.0335 21.0994 22.8724ZM24.4156 22.781L24.5471 22.7817C24.6376 22.7863 24.6775 22.792 24.8086 22.7825H24.8316C24.8277 22.9063 24.8097 23.0644 24.7913 23.1779C24.7365 23.5348 24.5998 23.8743 24.3919 24.1703C24.4509 23.8945 24.4724 23.6888 24.4724 23.6141C24.4724 23.3444 24.4156 22.781 24.4156 22.781ZM24.306 22.7878C24.3072 22.8213 24.3167 23.1063 24.2619 23.5231L24.265 23.5154C24.2198 23.8813 24.1379 24.2417 24.0204 24.5913L24.0139 24.597C23.7371 25.4103 23.202 26.3227 22.1701 26.9345C21.1669 27.5288 20.3899 27.6739 19.6769 27.8072C18.8504 27.9619 18.1136 28.0994 17.2074 28.9703L17.255 28.6453L16.9207 28.6853C17.9162 27.7288 18.7093 27.5806 19.5998 27.4141C20.2802 27.2869 21.0212 27.1482 21.9581 26.5932C23.9039 25.4404 23.9043 23.0899 23.8981 22.8236C23.9173 22.8389 24.1251 22.8015 24.306 22.7878ZM23.8429 20.9124C23.8429 20.9124 23.9062 20.8293 24.0649 20.8328C24.1508 20.8347 24.2316 20.8404 24.3072 20.8442L24.3141 20.8575L24.321 20.8579C24.459 21.1219 24.5188 21.3132 24.5356 21.5791C24.5763 21.3848 24.5326 21.1238 24.459 20.8933L24.4509 20.8507L24.4866 20.8511C24.6085 20.8511 24.7319 20.8343 24.7879 20.8834L24.7882 20.8872C24.793 20.8902 24.7975 20.8935 24.8017 20.8972C24.8047 20.9463 24.9883 21.3383 25.0098 21.8164C25.0317 22.2949 24.8488 22.592 24.8488 22.592C24.6709 22.6065 24.6476 22.5958 24.5073 22.5909L24.508 22.5775L24.4935 22.5772C24.4988 22.5002 24.4984 22.4137 24.4973 22.357C24.4774 22.4396 24.4601 22.5105 24.413 22.5893C24.2067 22.5928 23.8966 22.656 23.9108 22.6252L23.9135 22.6194C23.9008 22.6187 23.8947 22.616 23.897 22.6111C24.2784 21.7928 23.9085 21.0187 23.8429 20.9124ZM18.2812 26.2019C18.2831 26.2004 18.9796 25.6766 19.8728 25.5402C19.974 25.525 20.0698 25.5135 20.184 25.4998C20.8978 25.4137 22.3115 25.232 23.3082 24.5954C23.23 24.8389 23.0878 25.0693 22.9272 25.2732C21.9566 25.6907 20.8526 25.8232 20.2339 25.8979C20.134 25.9093 20.0344 25.9219 19.9349 25.9356C19.1479 26.0556 18.5296 26.5204 18.528 26.5219L18.5951 26.2278L18.2812 26.2019ZM25.0405 22.7966C25.1336 22.7928 25.2187 22.7893 25.2398 22.7893C25.2993 22.7883 25.3582 22.7771 25.4142 22.757C25.5791 22.6983 25.701 22.5726 25.8221 22.4796C25.7197 22.6834 25.6569 22.8099 25.4307 22.88C25.4276 22.885 25.4242 22.8888 25.4207 22.893L25.42 22.8937L25.4196 22.8941C25.3521 22.9692 25.1881 22.9859 25.0305 22.9566L25.0405 22.7966ZM2.94207 6.5783L2.9482 6.58592C3.89312 7.09144 5.99724 8.00344 9.10684 8.2823C7.00195 8.63658 5.5104 8.41982 4.47617 8.01715C5.10484 8.44001 5.80634 8.72192 6.25982 8.85754C5.47399 8.90706 4.12274 8.68039 3.31314 7.83239C2.9988 7.50325 2.44719 7.05411 2.38317 6.25677C2.38222 6.25227 2.38183 6.24766 2.38202 6.24306L2.94207 6.5783ZM1.56054 4.20954C2.68179 5.40496 4.73607 6.63163 8.45402 6.67887C5.59819 5.8202 1.62149 3.72573 0.270238 1.93144L0.268704 1.92916L0.266788 1.92649L0.254521 1.91011C0.146038 4.99201 2.64959 5.99049 3.08314 6.15773C2.52347 5.6762 2.02245 5.16725 1.56054 4.20954ZM18.934 9.17715C17.4417 9.09258 14.9876 8.70325 13.3707 7.6903C14.9366 7.83125 16.2092 7.8122 17.2657 7.72039L17.189 7.64801C13.902 6.92115 6.00567 5.24649 3.13604 2.32954C3.62824 3.61639 4.16835 4.35849 4.16835 4.35849L4.13539 4.34592C3.7716 4.16992 1.97569 2.78249 2.1317 0.638489L2.13324 0.640394V0.641155C2.23482 0.797727 2.34905 0.949727 2.47594 1.09754C2.5825 1.20839 2.69252 1.31925 2.7711 1.41296C5.67179 4.26401 13.2054 5.33296 16.8291 5.85792C17.8089 6.00001 17.8932 5.98363 18.6994 6.67201C20.8058 8.47125 20.9258 8.60344 22.9532 9.54668C22.99 9.52458 23.0326 9.50325 23.0843 9.4842C24.0519 9.12725 25.0213 8.87354 25.8827 8.80611C26.7107 8.74134 28.2133 8.92801 28.6749 9.86706C28.7554 10.0316 28.8075 10.2419 28.8155 10.5269C29.1858 11.0183 29.381 11.7859 28.6864 12.0914C29.0041 11.6373 28.3667 11.0076 27.7867 11.3608C27.1059 11.7753 26.3825 12.8328 24.5636 13.1547C24.6767 12.9958 24.7361 12.7212 24.7541 12.6C24.1511 12.8465 23.2124 12.9288 22.6887 12.8903C22.6887 12.8903 23.3573 12.5695 23.4983 12.1871C21.0941 13.0412 17.8445 15.3871 15.9746 16.3924C17.7571 14.248 19.7949 12.6126 21.0193 11.6777C19.7758 11.5505 18.3061 11.2072 17.2327 10.6469C18.272 10.6987 19.6424 10.661 20.8395 10.565L20.8357 10.5619C19.292 10.517 16.7639 10.1128 15.2237 9.29601C16.9134 9.40458 18.0607 9.31506 18.934 9.17715ZM18.847 20.9349C18.847 20.9349 19.108 21.1745 19.1306 21.6884C19.1529 22.2027 18.8466 22.5276 18.8466 22.5276C18.8466 22.5276 18.9896 21.7314 18.847 20.9349ZM0.274071 1.96458C0.280971 1.99582 0.293238 2.04382 0.311254 2.10706C0.293852 2.061 0.281388 2.01324 0.274071 1.96458Z" fill="white"/>
</g>
<defs>
<clipPath id="clip0_2_11">
<rect width="46" height="40" fill="white"/>
</clipPath>
</defs>
</svg>
